<svg xmlns="http://www.w3.org/2000/svg" width="479" height="96" overflow="visible"><path fill="#ffffff" d="M116 14.5c-2.207 0-4 1.793-4 4v55.999c0 2.207 1.793 4 4 4h56c2.207 0 4-1.793 4-4v-55.999c0-2.207-1.793-4-4-4h-56z"/><path fill="#C7C7C7" d="M172 82.499h-56c-4.41 0-8-3.59-8-8v-55.999c0-4.41 3.59-8 8-8h56c4.41 0 8 3.59 8 8v55.999c0 4.41-3.589 8-8 8zm-56-68c-2.207 0-4 1.793-4 4v56c0 2.207 1.793 4 4 4h56c2.207 0 4-1.793 4-4v-56c0-2.207-1.793-4-4-4h-56z"/><path fill="#fff" d="M21 14.5c-2.207 0-4 1.793-4 4v55.999c0 2.207 1.793 4 4 4h56c2.207 0 4-1.793 4-4v-55.999c0-2.207-1.793-4-4-4h-56z"/><path fill="#E9E9E9" d="M77 82.499h-56c-4.41 0-8-3.59-8-8v-55.999c0-4.41 3.59-8 8-8h56c4.41 0 8 3.59 8 8v55.999c0 4.41-3.59 8-8 8zm-56-68c-2.207 0-4 1.793-4 4v56c0 2.207 1.793 4 4 4h56c2.207 0 4-1.793 4-4v-56c0-2.207-1.793-4-4-4h-56z"/><path fill="#fff" d="M212 14.5c-2.207 0-4 1.793-4 4v55.999c0 2.207 1.793 4 4 4h56c2.207 0 4-1.793 4-4v-55.999c0-2.207-1.793-4-4-4h-56z"/><path fill="#C7C7C7" d="M268 82.499h-56c-4.41 0-8-3.59-8-8v-55.999c0-4.41 3.59-8 8-8h56c4.41 0 8 3.59 8 8v55.999c0 4.41-3.59 8-8 8zm-56-68c-2.207 0-4 1.793-4 4v56c0 2.207 1.793 4 4 4h56c2.207 0 4-1.793 4-4v-56c0-2.207-1.793-4-4-4h-56z"/><polygon fill="#C7C7C7" points="236.812,70.046 268.863,29.176 259.422,21.77 236.668,52.987 225.496,41.816 217.012,50.3 228.324,61.612 236.738,70.022 236.773,70.097 236.789,70.073 236.812,70.097"/><path fill="#fff" d="M308 14.499c-2.207 0-4 1.793-4 4v56c0 2.207 1.793 4 4 4h56c2.207 0 4-1.793 4-4v-56c0-2.207-1.793-4-4-4h-56z"/><path fill="#C7C7C7" d="M364 82.499h-56c-4.41 0-8-3.59-8-8v-55.999c0-4.41 3.59-8 8-8h56c4.41 0 8 3.59 8 8v55.999c0 4.41-3.59 8-8 8zm-56-68c-2.207 0-4 1.793-4 4v56c0 2.207 1.793 4 4 4h56c2.207 0 4-1.793 4-4v-56c0-2.207-1.793-4-4-4h-56z"/><polygon fill="#4967AF" points="332.812,70.046 364.863,29.176 355.422,21.77 332.668,52.987 321.496,41.816 313.012,50.3 324.324,61.612 332.738,70.022 332.773,70.097 332.789,70.073 332.812,70.097"/><path fill="#fff" d="M404 14.499c-2.207 0-4 1.793-4 4v56c0 2.207 1.793 4 4 4h56c2.207 0 4-1.793 4-4v-56c0-2.207-1.793-4-4-4h-56z"/><path fill="#C7C7C7" d="M460 82.499h-56c-4.41 0-8-3.59-8-8v-55.999c0-4.41 3.59-8 8-8h56c4.41 0 8 3.59 8 8v55.999c0 4.41-3.59 8-8 8zm-56-68c-2.207 0-4 1.793-4 4v56c0 2.207 1.793 4 4 4h56c2.207 0 4-1.793 4-4v-56c0-2.207-1.793-4-4-4h-56z"/><rect x="415" y="40.5" fill="#4967AF" width="35" height="11.999"/></svg>
