<?xml version="1.0" encoding="utf-8"?>
<!-- Generator: Adobe Illustrator 15.1.0, SVG Export Plug-In  -->
<!DOCTYPE svg PUBLIC "-//W3C//DTD SVG 1.1//EN" "http://www.w3.org/Graphics/SVG/1.1/DTD/svg11.dtd" [
	<!ENTITY ns_flows "http://ns.adobe.com/Flows/1.0/">
]>
<svg version="1.1"
	 xmlns="http://www.w3.org/2000/svg" xmlns:xlink="http://www.w3.org/1999/xlink" xmlns:a="http://ns.adobe.com/AdobeSVGViewerExtensions/3.0/"
	 x="0px" y="0px" width="352px" height="352px" viewBox="0 -11.572 352 352"
	 overflow="visible" enable-background="new 0 -11.572 352 352" xml:space="preserve">
<defs>
</defs>
<path fill="#7190AC" d="M0.038,0C0.018,0,0,0.027,0,0.061v12.873c0,0.033,0.018,0.06,0.038,0.06h31.438
	c0.021,0,0.038-0.027,0.038-0.06V0.061C31.515,0.027,31.498,0,31.477,0H0.038z"/>
<path fill="#7190AC" d="M0.038,26.018C0.018,26.018,0,26.045,0,26.079v12.873c0,0.033,0.018,0.06,0.038,0.06h31.438
	c0.021,0,0.038-0.027,0.038-0.06V26.079c0-0.033-0.017-0.061-0.038-0.061H0.038z"/>
<path fill="#7190AC" d="M0.038,52.037C0.018,52.037,0,52.063,0,52.097V64.97c0,0.033,0.018,0.06,0.038,0.06h31.438
	c0.021,0,0.038-0.026,0.038-0.06V52.097c0-0.034-0.017-0.061-0.038-0.061H0.038z"/>
<path fill="#7190AC" d="M83.499,36.752c2.335,0,4.224-1.89,4.224-4.224s-1.889-4.224-4.223-4.224H56.189l12.158-12.156l-5.972-5.973
	L43.063,29.484c-0.792,0.792-1.237,1.864-1.237,2.986c0,1.117,0.445,2.194,1.237,2.986l19.312,19.316l5.972-5.973L56.303,36.752
	H83.499z"/>
<path fill="#7190AC" d="M87.981,240.875c0.021,0,0.038-0.027,0.038-0.061v-12.873c0-0.033-0.018-0.06-0.038-0.06H56.543
	c-0.021,0-0.038,0.027-0.038,0.06v12.873c0,0.033,0.017,0.061,0.038,0.061H87.981z"/>
<path fill="#7190AC" d="M87.981,214.857c0.021,0,0.038-0.027,0.038-0.061v-12.873c0-0.033-0.018-0.06-0.038-0.06H56.543
	c-0.021,0-0.038,0.027-0.038,0.06v12.873c0,0.033,0.017,0.061,0.038,0.061H87.981z"/>
<path fill="#7190AC" d="M87.981,188.839c0.021,0,0.038-0.027,0.038-0.061v-12.873c0-0.033-0.018-0.06-0.038-0.06H56.543
	c-0.021,0-0.038,0.026-0.038,0.06v12.873c0,0.034,0.017,0.061,0.038,0.061H87.981z"/>
<path fill="#7190AC" d="M4.52,204.124c-2.334,0-4.224,1.89-4.224,4.224s1.889,4.224,4.224,4.224h27.31l-12.158,12.156l5.972,5.973
	l19.312-19.308c0.792-0.792,1.237-1.864,1.237-2.986c0-1.117-0.445-2.194-1.237-2.986l-19.312-19.316l-5.972,5.973l12.045,12.048
	H4.52z"/>
<path fill="#0098CD" d="M176.033,0c-0.021,0-0.038,0.027-0.038,0.061v12.873c0,0.033,0.018,0.06,0.038,0.06h31.438
	c0.021,0,0.038-0.027,0.038-0.06V0.061c0-0.033-0.017-0.061-0.038-0.061H176.033z"/>
<path fill="#0098CD" d="M176.033,26.018c-0.021,0-0.038,0.027-0.038,0.061v12.873c0,0.033,0.018,0.06,0.038,0.06h31.438
	c0.021,0,0.038-0.027,0.038-0.06V26.079c0-0.033-0.017-0.061-0.038-0.061H176.033z"/>
<path fill="#0098CD" d="M176.033,52.037c-0.021,0-0.038,0.027-0.038,0.061V64.97c0,0.033,0.018,0.06,0.038,0.06h31.438
	c0.021,0,0.038-0.026,0.038-0.06V52.097c0-0.034-0.017-0.061-0.038-0.061H176.033z"/>
<path fill="#0098CD" d="M259.494,36.752c2.335,0,4.224-1.89,4.224-4.224s-1.889-4.224-4.223-4.224h-27.311l12.158-12.156
	l-5.972-5.973l-19.312,19.308c-0.792,0.792-1.237,1.864-1.237,2.986c0,1.117,0.445,2.194,1.237,2.986l19.312,19.316l5.972-5.973
	l-12.045-12.048H259.494z"/>
<path fill="#0098CD" d="M263.977,240.875c0.021,0,0.038-0.027,0.038-0.061v-12.873c0-0.033-0.018-0.06-0.038-0.06h-31.438
	c-0.021,0-0.038,0.027-0.038,0.06v12.873c0,0.033,0.017,0.061,0.038,0.061H263.977z"/>
<path fill="#0098CD" d="M263.977,214.857c0.021,0,0.038-0.027,0.038-0.061v-12.873c0-0.033-0.018-0.06-0.038-0.06h-31.438
	c-0.021,0-0.038,0.027-0.038,0.06v12.873c0,0.033,0.017,0.061,0.038,0.061H263.977z"/>
<path fill="#0098CD" d="M263.977,188.839c0.021,0,0.038-0.027,0.038-0.061v-12.873c0-0.033-0.018-0.06-0.038-0.06h-31.438
	c-0.021,0-0.038,0.026-0.038,0.06v12.873c0,0.034,0.017,0.061,0.038,0.061H263.977z"/>
<path fill="#0098CD" d="M180.516,204.124c-2.335,0-4.225,1.89-4.225,4.224s1.89,4.224,4.225,4.224h27.309l-12.158,12.156
	l5.973,5.973l19.312-19.308c0.792-0.792,1.237-1.864,1.237-2.986c0-1.117-0.445-2.194-1.237-2.986l-19.312-19.316l-5.973,5.973
	l12.045,12.048H180.516z"/>
</svg>
