<svg xmlns="http://www.w3.org/2000/svg" width="256" height="6020" viewBox="0 0 256 6020"><path fill="#999" d="M.058 4660h64v12h-64v-12zm48 109.883v22.117h-40v-37h22.118v-8h-30.118v53h57v-30.117h-9zm-18-33.883v34h34v-34h-34zm26 27h-18v-19h18v19zm-56-4486.591c0-1.794 1.219-2.446 2.71-1.447l26.538 17.782c1.492.998 3.93.998 5.42 0l26.541-17.782c1.491-.999 2.71-.347 2.71 1.447v29.155c0 1.89-1.546 3.436-3.436 3.436h-57.047c-1.89 0-3.436-1.546-3.436-3.436v-29.155zm34.669 7.824c-1.49 1.022-3.929 1.022-5.42 0l-23.684-16.262c-1.57-1.078-1.308-1.96.582-1.96h51.627c1.891 0 2.151.882.582 1.96l-23.687 16.262z"/><path fill="#fff" d="M128.058 276.409c0-1.794 1.219-2.446 2.71-1.447l26.538 17.782c1.492.998 3.93.998 5.42 0l26.541-17.782c1.491-.999 2.71-.347 2.71 1.447v29.155c0 1.89-1.546 3.436-3.436 3.436h-57.048c-1.89 0-3.436-1.546-3.436-3.436v-29.155h.001zm34.669 7.824c-1.49 1.022-3.929 1.022-5.42 0l-23.684-16.262c-1.57-1.078-1.308-1.96.582-1.96h51.627c1.891 0 2.151.882.582 1.96l-23.687 16.262z"/><path fill="#999" d="M40.018 543.147v-24.72c0-1.862-1.523-3.388-3.388-3.388l-33.185.123c-1.864 0-3.388 1.526-3.388 3.388v50.061c0 1.864 1.523 3.389 3.388 3.389h7.605c1.521-15.33 13.637-27.333 28.968-28.853zm3.667 21.853h4.374v4l.019 4.981 14.947-16.1c.344-.349.391-.754.387-.963-.004-.209-.062-.611-.417-.947l-14.937-14.971v9l-4.816.012c-13.015 0-23.521 9.42-25.184 21.988h15.629c1.407-4.079 5.446-7 9.998-7z"/><path fill="#fff" d="M168.018 543.147v-24.72c0-1.862-1.523-3.388-3.388-3.388l-33.185.123c-1.864 0-3.388 1.526-3.388 3.388v50.061c0 1.864 1.523 3.389 3.388 3.389h7.605c1.521-15.33 13.637-27.333 28.968-28.853zm3.667 21.853h4.374v4l.019 4.981 14.947-16.1c.344-.349.391-.754.387-.963-.004-.209-.062-.611-.417-.947l-14.937-14.971v9l-4.816.012c-13.015 0-23.521 9.42-25.184 21.988h15.629c1.407-4.079 5.446-7 9.998-7z"/><path fill="#999" d="M55.441 643h-26.262c5.566 5.68 9.199 13.211 9.82 21.621 1.039 0 2.242 0 3.52.004 4.613.012 6.207 2.574 6.676 3.676.617 1.434 1.133 4.379-2.285 7.98l-16.172 17.012c-1.629 1.715-3.918 2.695-6.281 2.695-2.293 0-4.457-.887-6.09-2.5l-2.129-2.102v8.996c0 1.992 1.629 3.617 3.617 3.617h35.586c1.988 0 3.617-1.625 3.617-3.617v-53.766c0-1.987-1.629-3.616-3.617-3.616zm-48.383 29l16.68 16.34c.367.359.789.41 1.008.41.227 0 .668-.055 1.035-.445l16.277-16.305c-3.199-.004-6.066.07-6.07.07l-3.945-.086v-4.676c0-13.902-10.555-25.531-23.984-27.309v16.699c4.359 1.504 8.039 5.424 8.039 10.283l-.039 5.074-4-.057c-.001.002-2.001.002-5.001.002z"/><path fill="#fff" d="M183.441 643h-26.262c5.566 5.68 9.199 13.211 9.82 21.621 1.039 0 2.242 0 3.52.004 4.613.012 6.207 2.574 6.676 3.676.617 1.434 1.133 4.379-2.285 7.98l-16.172 17.012c-1.629 1.715-3.918 2.695-6.281 2.695-2.293 0-4.457-.887-6.09-2.5l-2.129-2.102v8.996c0 1.992 1.629 3.617 3.617 3.617h35.586c1.988 0 3.617-1.625 3.617-3.617v-53.766c0-1.987-1.629-3.616-3.617-3.616zm-48.383 29l16.68 16.34c.367.359.789.41 1.008.41.227 0 .668-.055 1.035-.445l16.277-16.305c-3.199-.004-6.066.07-6.07.07l-3.945-.086v-4.676c0-13.902-10.555-25.531-23.984-27.309v16.699c4.359 1.504 8.039 5.424 8.039 10.283l-.039 5.074-4-.057c-.001.002-2.001.002-5.001.002z"/><path fill="#999" d="M13.117 384h37.941v19h-37.941v-19zm47.527 28h-57.172c-1.879 0-3.414 1.535-3.414 3.41v19.176c0 1.879 1.535 3.414 3.414 3.414h4.586v-11h47.083v11h5.502c1.879 0 3.414-1.535 3.414-3.414v-19.176c.001-1.875-1.534-3.41-3.413-3.41zm-47.527 20.167h36.879v15.833h-36.879v-15.833z"/><path fill="#fff" d="M141.117 384h37.941v19h-37.941v-19zm47.527 28h-57.172c-1.879 0-3.414 1.535-3.414 3.41v19.176c0 1.879 1.535 3.414 3.414 3.414h4.586v-11h47.083v11h5.502c1.879 0 3.414-1.535 3.414-3.414v-19.176c.001-1.875-1.534-3.41-3.413-3.41zm-47.527 20.167h36.879v15.833h-36.879v-15.833z"/><path fill="#999" d="M21.058 789.026h-17.606c-1.866 0-3.394 1.528-3.394 3.391v15.193c0 1.867 1.528 3.391 3.394 3.391h17.606v17.606c0 1.867 1.523 3.394 3.391 3.394h15.215c1.866 0 3.394-1.527 3.394-3.394v-17.607h17.606c1.866 0 3.394-1.523 3.394-3.391v-15.193c0-1.863-1.528-3.391-3.394-3.391h-17.606v-17.631c0-1.867-1.528-3.395-3.394-3.395h-15.215c-1.867 0-3.391 1.528-3.391 3.395v17.632z"/><path fill="#fff" d="M149.058 789.026h-17.606c-1.866 0-3.394 1.528-3.394 3.391v15.193c0 1.867 1.528 3.391 3.394 3.391h17.606v17.606c0 1.867 1.523 3.394 3.391 3.394h15.215c1.866 0 3.394-1.527 3.394-3.394v-17.607h17.606c1.866 0 3.394-1.523 3.394-3.391v-15.193c0-1.863-1.528-3.391-3.394-3.391h-17.606v-17.631c0-1.867-1.528-3.395-3.394-3.395h-15.215c-1.867 0-3.391 1.528-3.391 3.395v17.632z"/><path fill="#999" d="M33.093 960c-10.457 0-18.969-8.508-18.969-18.969v-31.582c0-7.418 6.203-13.449 13.828-13.449 7.621 0 14.105 6.031 14.105 13.449v31.441c0 4.738-4.137 8.594-8.875 8.594-4.742 0-8.125-3.855-8.125-8.594v-23.805l4.928.182v23.805c0 1.859 1.334 3.193 3.197 3.193 1.859 0 3.875-1.406 3.875-3.266v-31.441c0-4.539-4.359-8.336-9.105-8.336s-8.975 3.318-8.975 7.857v31.582c0 7.582 6.533 14.119 14.115 14.119 7.578 0 13.746-6.168 13.746-13.75v-23.805h5.219v23.805c.001 10.462-8.507 18.97-18.964 18.97z"/><path fill="#fff" d="M161.093 960c-10.457 0-18.969-8.508-18.969-18.969v-31.582c0-7.418 6.203-13.449 13.828-13.449 7.621 0 14.105 6.031 14.105 13.449v31.441c0 4.738-4.137 8.594-8.875 8.594-4.742 0-8.125-3.855-8.125-8.594v-23.805l4.928.182v23.805c0 1.859 1.334 3.193 3.197 3.193 1.859 0 3.875-1.406 3.875-3.266v-31.441c0-4.539-4.359-8.336-9.105-8.336s-8.975 3.318-8.975 7.857v31.582c0 7.582 6.533 14.119 14.115 14.119 7.578 0 13.746-6.168 13.746-13.75v-23.805h5.219v23.805c.001 10.462-8.507 18.97-18.964 18.97z"/><path fill="#999" d="M6.058 1080.203c0 4.298 3.496 7.797 7.796 7.797h36.102c4.297 0 8.102-3.499 8.102-7.797v-28.203h-52v28.203zm43.898-48.356h-.898v2.086c0 3.063-1.979 5.56-5.043 5.56-3.067 0-4.957-2.496-4.957-5.56v-1.861h-15v1.861c0 3.063-1.933 5.56-5 5.56-3.063 0-5-2.496-5-5.56v-2.086h-.204c-4.301 0-7.796 3.499-7.796 7.797v7.356h52l-.018-7.068c.001-4.298-3.787-8.085-8.084-8.085zm-30.803-7.847c-1.155 0-2.095.94-2.095 2.095v7.838c0 1.154.94 2.095 2.095 2.095 1.158 0 1.905-.94 1.905-2.095v-7.838c0-1.155-.747-2.095-1.905-2.095zm24.81 0c-1.158 0-1.905.94-1.905 2.095v7.838c0 1.154.747 2.095 1.905 2.095 1.155 0 2.095-.94 2.095-2.095v-7.838c0-1.155-.94-2.095-2.095-2.095z"/><path fill="#fff" d="M134.058 1080.203c0 4.298 3.496 7.797 7.796 7.797h36.102c4.297 0 8.102-3.499 8.102-7.797v-28.203h-52v28.203zm43.898-48.356h-.898v2.086c0 3.063-1.979 5.56-5.043 5.56-3.067 0-4.957-2.496-4.957-5.56v-1.861h-15v1.861c0 3.063-1.933 5.56-5 5.56-3.063 0-5-2.496-5-5.56v-2.086h-.204c-4.301 0-7.796 3.499-7.796 7.797v7.356h52l-.018-7.068c.001-4.298-3.787-8.085-8.084-8.085zm-30.803-7.847c-1.155 0-2.095.94-2.095 2.095v7.838c0 1.154.94 2.095 2.095 2.095 1.158 0 1.905-.94 1.905-2.095v-7.838c0-1.155-.747-2.095-1.905-2.095zm24.81 0c-1.158 0-1.905.94-1.905 2.095v7.838c0 1.154.747 2.095 1.905 2.095 1.155 0 2.095-.94 2.095-2.095v-7.838c0-1.155-.94-2.095-2.095-2.095z"/><path fill="#999" d="M32.058 1160.079c6.082 0 12.164 2.32 16.805 6.96 9.281 9.281 9.281 24.327 0 33.607-4.641 4.641-10.723 6.957-16.805 6.957s-12.164-2.316-16.805-6.957c-9.281-9.28-9.281-24.326 0-33.607 4.641-4.64 10.723-6.96 16.805-6.96m0-8.03c-8.492 0-16.477 3.308-22.48 9.312-12.398 12.397-12.398 32.568 0 44.962 6.004 6.008 13.988 9.312 22.48 9.312s16.477-3.305 22.484-9.312c12.395-12.394 12.395-32.564 0-44.962-6.007-6.005-13.992-9.312-22.484-9.312zm26.271-.158l5.68 5.676-58.305 58.346-5.68-5.676 58.305-58.346z"/><path fill="#fff" d="M160.058 1160.079c6.082 0 12.164 2.32 16.805 6.96 9.281 9.281 9.281 24.327 0 33.607-4.641 4.641-10.723 6.957-16.805 6.957s-12.164-2.316-16.805-6.957c-9.281-9.28-9.281-24.326 0-33.607 4.641-4.64 10.723-6.96 16.805-6.96m0-8.03c-8.492 0-16.477 3.308-22.48 9.312-12.398 12.397-12.398 32.568 0 44.962 6.004 6.008 13.988 9.312 22.48 9.312s16.477-3.305 22.484-9.312c12.395-12.394 12.395-32.564 0-44.962-6.007-6.005-13.992-9.312-22.484-9.312zm26.277-.153l5.68 5.676-58.305 58.346-5.68-5.676 58.305-58.346z"/><path fill="#999" d="M48.615 1284h-11.103c-.697-2.135-2.64-4.068-5.007-4.068-2.372 0-4.318 1.934-5.015 4.068h-11.989c-1.895 0-3.443 1.184-3.443 3.078v3.922h40v-3.922c0-1.894-1.548-3.078-3.443-3.078zm-36.537 53.908c0 3.321 2.703 6.023 6.024 6.023h27.933c3.321 0 6.023-2.702 6.023-6.023l-.019-42.908h-39.98l.019 42.908zm23.98-33.908h8l.068 32.068-8.068-.068v-32zm-16 0h8v32h-8v-32z"/><path fill="#fff" d="M176.615 1284h-11.103c-.697-2.135-2.64-4.068-5.007-4.068-2.372 0-4.318 1.934-5.015 4.068h-11.989c-1.895 0-3.443 1.184-3.443 3.078v3.922h40v-3.922c0-1.894-1.548-3.078-3.443-3.078zm-36.537 53.908c0 3.321 2.703 6.023 6.024 6.023h27.933c3.321 0 6.023-2.702 6.023-6.023l-.02-42.908h-39.98l.02 42.908zm23.98-33.908h8l.068 32.068-8.068-.068v-32zm-16 0h8v32h-8v-32z"/><path fill="#999" d="M38.109 1419.179l14.395 14.398-30.641 30.853-21.805 7.406 7.41-21.806 30.641-30.851zm22.97 6.035c3.973-3.977 3.973-10.423 0-14.396-3.977-3.977-10.422-3.977-14.399 0l-3.766 3.766 14.395 14.399 3.77-3.769z"/><path fill="#fff" d="M166.109 1419.179l14.395 14.398-30.641 30.853-21.805 7.406 7.41-21.806 30.641-30.851zm22.97 6.035c3.973-3.977 3.973-10.423 0-14.396-3.977-3.977-10.422-3.977-14.399 0l-3.766 3.766 14.395 14.399 3.77-3.769z"/><path fill="#999" d="M2.957 1586.536c-1.078-1.076-2.398-2.707-2.898-4.453l17-.083c.559 0 .871.398.871.954v16.49c-1.742-.502-3.527-1.438-4.602-2.514l-10.371-10.394zm61.101 9.19c0 2.262-1.848 4.109-4.102 4.109h-35.878v-16.881c0-3.965-3.219-7.189-7.176-7.189h-16.844v-23.765h64v43.726zm-64-59.683h64v11.898h-64v-11.898z"/><path fill="#fff" d="M130.957 1586.536c-1.078-1.076-2.398-2.707-2.898-4.453l17-.083c.559 0 .871.398.871.954v16.49c-1.742-.502-3.527-1.438-4.602-2.514l-10.371-10.394zm61.101 9.19c0 2.262-1.848 4.109-4.102 4.109h-35.879v-16.881c0-3.965-3.219-7.189-7.176-7.189h-16.844v-23.765h64l.001 43.726zm-64-59.683h64v11.898h-64v-11.898z"/><path fill="#999" d="M.058 1664h8v64h-8v-64zm56.297 0h-44.297v64h47.609c2.426 0 4.391-1.965 4.391-4.391v-55.219c0-2.425-1.965-4.39-7.703-4.39zm-25.297 17.035c0-3.262 2.855-5.91 6.121-5.91s5.879 2.613 5.879 5.875v6.527c0 3.266-2.613 5.945-5.879 5.945s-6.121-2.645-6.121-5.91v-6.527zm15.953 35.965h-19.953l-1-10.664c0-3.68 2.691-6.902 5.578-8.738 1.594 1.043 3.5 1.652 5.543 1.652s3.953-.609 5.547-1.652c2.891 1.836 5.332 5.059 5.332 8.738l-1.047 10.664z"/><path fill="#fff" d="M128.058 1664h8v64h-8v-64zm56.297 0h-44.297v64h47.609c2.426 0 4.391-1.965 4.391-4.391v-55.219c0-2.425-1.965-4.39-7.703-4.39zm-25.297 17.035c0-3.262 2.855-5.91 6.121-5.91s5.879 2.613 5.879 5.875v6.527c0 3.266-2.613 5.945-5.879 5.945s-6.121-2.645-6.121-5.91v-6.527zm15.953 35.965h-19.953l-1-10.664c0-3.68 2.691-6.902 5.578-8.738 1.594 1.043 3.5 1.652 5.543 1.652s3.953-.609 5.547-1.652c2.891 1.836 5.332 5.059 5.332 8.738l-1.047 10.664z"/><path fill="#999" d="M.058 1837.598c0 4.78 3.891 10.402 8.67 10.402h46.659c4.78 0 8.67-3.887 8.67-8.67v-26.33h-64v24.598h.001zm52 .402h-13v-4h13v4zm-40.164-17h40.165v4h-40.165v-4zm43.494-21h-55.33v8h64v-8h-8.67z"/><path fill="#fff" d="M128.058 1837.598c0 4.78 3.891 10.402 8.67 10.402h46.659c4.78 0 8.67-3.887 8.67-8.67v-26.33h-64v24.598h.001zm52 .402h-13v-4h13v4zm-40.164-17h40.165v4h-40.165v-4zm43.494-21h-55.33v8h64v-8h-8.67z"/><path fill="#999" d="M35.327 2304h-27.151c-4.606 0-8.118 3.746-8.118 8.354v26.643c0 4.607 3.511 8.004 8.118 8.004h27.151c4.606 0 7.731-3.396 7.731-8.004v-26.643c0-4.608-3.125-8.354-7.731-8.354zm16.731 29h8v7h-8v-7zm-25 27h7v8h-7v-8zm25-12.992h8v6.992h-8v-6.992zm-10.897 12.992h6.897v8h-6.897v-8zm10.033-33.033h8.125c-1.309-2.904-4.225-4.934-7.614-4.934h-.511v4.934zm1.864 32.033v8.5c2.5-.896 5.235-6.089 6.298-8.5h-6.298zm-33 4.735v-5.504h-5v2.165c0 3.379 2.107 6.291 5 7.604v-4.265z"/><path fill="#fff" d="M163.327 2304h-27.151c-4.606 0-8.118 3.746-8.118 8.354v26.643c0 4.607 3.511 8.004 8.118 8.004h27.151c4.606 0 7.731-3.396 7.731-8.004v-26.643c0-4.608-3.125-8.354-7.731-8.354zm16.731 29h8v7h-8v-7zm-25 27h7v8h-7v-8zm25-12.992h8v6.992h-8v-6.992zm-10.897 12.992h6.897v8h-6.897v-8zm10.033-33.033h8.125c-1.309-2.904-4.225-4.934-7.614-4.934h-.511v4.934zm1.864 32.033v8.5c2.5-.896 5.235-6.089 6.298-8.5h-6.298zm-33 4.735v-5.504h-5v2.165c0 3.379 2.107 6.291 5 7.604v-4.265z"/><path fill="#999" d="M60.863 2071.744l-21.193-20.68c-4.187-4.086-11.035-4.086-15.222 0l-21.197 20.68c-4.187 4.086-4.267 10.855-.184 15.035l21.565 22.082c4.082 4.184 10.766 4.184 14.853 0l21.561-22.082c4.088-4.179 4.004-10.949-.183-15.035zm-23.805 24.031c0 .965-.854 2.225-1.843 2.225h-6.315c-.985 0-1.842-1.26-1.842-2.225v-6.16c0-.965.857-1.615 1.842-1.615h6.315c.989 0 1.843.65 1.843 1.615v6.16zm0-14.832c0 .961-.854 2.057-1.843 2.057h-6.315c-.985 0-1.842-1.096-1.842-2.057v-18.367c0-.965.653-1.576 1.638-1.576h6.315c.989 0 2.046.611 2.046 1.576l.001 18.367z"/><path fill="#fff" d="M188.863 2071.744l-21.193-20.68c-4.187-4.086-11.035-4.086-15.222 0l-21.197 20.68c-4.187 4.086-4.267 10.855-.184 15.035l21.565 22.082c4.082 4.184 10.766 4.184 14.853 0l21.561-22.082c4.088-4.179 4.004-10.949-.183-15.035zm-23.805 24.031c0 .965-.854 2.225-1.843 2.225h-6.315c-.985 0-1.842-1.26-1.842-2.225v-6.16c0-.965.857-1.615 1.842-1.615h6.315c.989 0 1.843.65 1.843 1.615v6.16zm0-14.832c0 .961-.854 2.057-1.843 2.057h-6.315c-.985 0-1.842-1.096-1.842-2.057v-18.367c0-.965.653-1.576 1.638-1.576h6.315c.989 0 2.046.611 2.046 1.576l.001 18.367z"/><path fill="#999" d="M62.475 1969.057l-23.558-41.918c-3.773-6.707-9.945-6.707-13.719 0l-23.558 41.918c-3.773 6.706-.826 11.931 6.869 11.931h46.562c7.699-.001 11.178-5.225 7.404-11.931zm-25.417 1.875c0 .957-.961 2.068-1.926 2.068h-6.148c-.965 0-1.925-1.111-1.925-2.068v-6.164c0-.961 1.035-1.768 2-1.768h6.148c.965 0 1.852.807 1.852 1.768v6.164h-.001zm0-14.82c0 .961-.927 1.888-1.892 1.888h-6.354c-.965 0-1.754-.789-1.754-1.75v-18.504c0-.961.789-1.746 1.754-1.746h6.354c.965 0 1.892.647 1.892 1.608v18.504z"/><path fill="#fff" d="M190.475 1969.057l-23.558-41.918c-3.773-6.707-9.945-6.707-13.719 0l-23.559 41.918c-3.773 6.706-.826 11.931 6.869 11.931h46.562c7.7-.001 11.179-5.225 7.405-11.931zm-25.417 1.875c0 .957-.961 2.068-1.926 2.068h-6.148c-.965 0-1.925-1.111-1.925-2.068v-6.164c0-.961 1.035-1.768 2-1.768h6.148c.965 0 1.852.807 1.852 1.768v6.164h-.001zm0-14.82c0 .961-.927 1.888-1.892 1.888h-6.354c-.965 0-1.754-.789-1.754-1.75v-18.504c0-.961.789-1.746 1.754-1.746h6.354c.965 0 1.892.647 1.892 1.608v18.504z"/><path fill="#999" d="M60.416 2178.141h-40.529c-1.916 0-4.986.25-6.941.559-1.334-1.645-3.375-2.699-5.67-2.699-4.018 0-7.275 3.234-7.275 7.227 0 2.758.785 5.156 3.074 6.371v46.828l-.016.152c0 1.891 2.317 3.422 4.217 3.422 1.904 0 4.738-1.531 4.738-3.422l-.016-.145v-13.641c1.215-.32 2.061-.461 2.061-.461 1.945-.324 3.858-.332 5.829-.332h40.529c1.971 0 3.584-1.855 3.584-3.812v-36.488c-.001-1.958-1.614-3.559-3.585-3.559zm-21.358 34.55c0 .98-1.394 2.309-2.382 2.309h-4.248c-.984 0-2.37-1.328-2.37-2.309v-4.691c0-.98 1.385-2 2.37-2h4.248c.988 0 2.382 1.02 2.382 2v4.691zm0-11.937c0 .977-1.394 1.246-2.382 1.246h-4.248c-.984 0-2.37-.27-2.37-1.246v-14.043c0-.98 1.385-1.781 2.37-1.781h4.248c.988 0 2.382.801 2.382 1.781v14.043z"/><path fill="#fff" d="M188.416 2178.141h-40.529c-1.916 0-4.986.25-6.941.559-1.334-1.645-3.375-2.699-5.67-2.699-4.018 0-7.275 3.234-7.275 7.227 0 2.758.785 5.156 3.074 6.371v46.828l-.016.152c0 1.891 2.317 3.422 4.217 3.422 1.904 0 4.738-1.531 4.738-3.422l-.016-.145v-13.641c1.215-.32 2.061-.461 2.061-.461 1.945-.324 3.858-.332 5.829-.332h40.529c1.971 0 3.584-1.855 3.584-3.812v-36.488c-.001-1.958-1.614-3.559-3.585-3.559zm-21.358 34.55c0 .98-1.394 2.309-2.382 2.309h-4.248c-.984 0-2.37-1.328-2.37-2.309v-4.691c0-.98 1.385-2 2.37-2h4.248c.988 0 2.382 1.02 2.382 2v4.691zm0-11.937c0 .977-1.394 1.246-2.382 1.246h-4.248c-.984 0-2.37-.27-2.37-1.246v-14.043c0-.98 1.385-1.781 2.37-1.781h4.248c.988 0 2.382.801 2.382 1.781v14.043z"/><path fill="#999" d="M60.416 2818.141h-40.529c-1.916 0-4.986.25-6.941.559-1.334-1.645-3.375-2.699-5.67-2.699-4.018 0-7.275 3.234-7.275 7.227 0 2.758.785 5.156 3.074 6.371v46.828l-.016.152c0 1.891 2.317 3.422 4.217 3.422 1.904 0 4.738-1.531 4.738-3.422l-.016-.145v-13.641c1.215-.32 2.061-.461 2.061-.461 1.945-.324 4.029-.332 6-.332h40.358c1.971 0 3.584-1.855 3.584-3.812v-36.488c-.001-1.958-1.614-3.559-3.585-3.559z"/><path fill="#fff" d="M188.474 2818.141h-40.529c-1.916 0-4.986.25-6.941.559-1.334-1.645-3.375-2.699-5.67-2.699-4.018 0-7.275 3.234-7.275 7.227 0 2.758.785 5.156 3.074 6.371v46.828l-.016.152c0 1.891 2.317 3.422 4.217 3.422 1.904 0 4.738-1.531 4.738-3.422l-.016-.145v-13.641c1.215-.32 2.061-.461 2.061-.461 1.945-.324 4.029-.332 6-.332h40.358c1.971 0 3.584-1.855 3.584-3.812v-36.488c-.001-1.958-1.614-3.559-3.585-3.559z"/><path fill="#999" d="M7.554 3989.353c.453-1.586 1.691-2.16 2.754-1.277l18.915 15.684c1.062.883 3.215.883 4.781 0l27.911-15.684c1.57-.883 2.48-.309 2.027 1.277l-7.375 25.719c-.477 1.665-2.234 3.929-3.902 3.929h-50.326c-1.664 0-2.637-2.264-2.16-3.929l7.375-25.719zm28.621 6.832c-1.566.879-3.719.879-4.781 0l-16.875-14c-1.121-.93-.672-2.185.996-2.185h45.543c1.668 0 1.68 1.255.027 2.185l-24.91 14z"/><path fill="#fff" d="M135.554 3989.353c.453-1.586 1.691-2.16 2.754-1.277l18.915 15.684c1.062.883 3.215.883 4.781 0l27.911-15.684c1.57-.883 2.48-.309 2.027 1.277l-7.375 25.719c-.477 1.665-2.234 3.929-3.902 3.929h-50.325c-1.664 0-2.637-2.264-2.16-3.929l7.374-25.719zm28.622 6.832c-1.566.879-3.719.879-4.781 0l-16.875-14c-1.121-.93-.672-2.185.996-2.185h45.543c1.668 0 1.68 1.255.027 2.185l-24.91 14z"/><path fill="#999" d="M55.597 2706.18h-.539v18.812c0 8.766-7.496 16.008-16.258 16.008h-22.312v2.172c0 4.867 3.961 8.828 8.828 8.828h29.914c4.867 0 8.828-3.961 8.828-8.828v-28.164c0-4.867-3.594-8.828-8.461-8.828zm-11.539 16.992v-26.344c0-4.867-3.961-8.828-8.828-8.828h-26.344c-4.867 0-8.828 3.961-8.828 8.828v26.344c0 4.867 3.961 8.828 8.828 8.828h26.344c4.867 0 8.828-3.961 8.828-8.828z"/><path fill="#fff" d="M183.597 2706.18h-.539v18.812c0 8.766-7.496 16.008-16.258 16.008h-22.312v2.172c0 4.867 3.961 8.828 8.828 8.828h29.914c4.867 0 8.828-3.961 8.828-8.828v-28.164c0-4.867-3.594-8.828-8.461-8.828zm-11.539 16.992v-26.344c0-4.867-3.961-8.828-8.828-8.828h-26.344c-4.867 0-8.828 3.961-8.828 8.828v26.344c0 4.867 3.961 8.828 8.828 8.828h26.344c4.867 0 8.828-3.961 8.828-8.828z"/><path fill="#999" d="M32.058 2944c-17.645 0-32 14.355-32 32s14.355 32 32 32 32-14.355 32-32-14.355-32-32-32zm4 53.703c0 .609-.086 1.297-.68 1.297h-6.926c-.594 0-1.395-.688-1.395-1.297v-6.867c0-.605.801-.836 1.395-.836h6.926c.594 0 .68.23.68.836v6.867zm9.75-28.492c-.477 1.219-1.074 2.258-1.797 3.125-.707.863-1.496 1.602-2.367 2.203-.871.609-1.688 1.219-2.469 1.828-.77.609-1.449 1.305-2.047 2.09-.602.789-.977 1.77-1.133 2.945v1.137c0 .605-.488 1.461-1.086 1.461h-5.645c-.598 0-1.086-.855-1.086-1.461v-1.547c.117-1.688.438-3.105.953-4.242.523-1.141 1.133-2.109 1.824-2.914.695-.809 1.43-1.5 2.203-2.094.77-.586 1.484-1.176 2.141-1.766s1.188-1.234 1.598-1.945c.398-.703.586-1.586.547-2.648 0-1.805-.43-3.137-1.301-4.004-.867-.863-2.074-1.297-3.625-1.297-1.039 0-1.938.207-2.688.621-.754.41-1.371.961-1.852 1.648-.484.688-.844 1.488-1.078 2.414-.227.922-.277 1.875-.277 1.875-.035.602-.551 1.359-1.148 1.359h-6.297c-.598 0-1.082-.758-1.082-1.367.121-1.695.461-3.27 1.02-4.727.676-1.766 1.625-3.297 2.84-4.594 1.211-1.289 2.684-2.305 4.402-3.031 1.711-.723 3.637-1.086 5.758-1.086 2.742 0 5.027.383 6.863 1.145 1.832.77 3.309 1.715 4.43 2.855 1.121 1.145 1.922 2.367 2.398 3.684.488 1.316.73 2.543.73 3.68.002 1.887-.241 3.438-.729 4.653z"/><path fill="#fff" d="M160.058 2944c-17.645 0-32 14.355-32 32s14.355 32 32 32 32-14.355 32-32-14.355-32-32-32zm4 53.703c0 .609-.086 1.297-.68 1.297h-6.926c-.594 0-1.395-.688-1.395-1.297v-6.867c0-.605.801-.836 1.395-.836h6.926c.594 0 .68.23.68.836v6.867zm9.75-28.492c-.477 1.219-1.074 2.258-1.797 3.125-.707.863-1.496 1.602-2.367 2.203-.871.609-1.688 1.219-2.469 1.828-.77.609-1.449 1.305-2.047 2.09-.602.789-.977 1.77-1.133 2.945v1.137c0 .605-.488 1.461-1.086 1.461h-5.645c-.598 0-1.086-.855-1.086-1.461v-1.547c.117-1.688.438-3.105.953-4.242.523-1.141 1.133-2.109 1.824-2.914.695-.809 1.43-1.5 2.203-2.094.77-.586 1.484-1.176 2.141-1.766s1.188-1.234 1.598-1.945c.398-.703.586-1.586.547-2.648 0-1.805-.43-3.137-1.301-4.004-.867-.863-2.074-1.297-3.625-1.297-1.039 0-1.938.207-2.688.621-.754.41-1.371.961-1.852 1.648-.484.688-.844 1.488-1.078 2.414-.227.922-.277 1.875-.277 1.875-.035.602-.551 1.359-1.148 1.359h-6.297c-.598 0-1.082-.758-1.082-1.367.121-1.695.461-3.27 1.02-4.727.676-1.766 1.625-3.297 2.84-4.594 1.211-1.289 2.684-2.305 4.402-3.031 1.711-.723 3.637-1.086 5.758-1.086 2.742 0 5.027.383 6.863 1.145 1.832.77 3.309 1.715 4.43 2.855 1.121 1.145 1.922 2.367 2.398 3.684.488 1.316.73 2.543.73 3.68.002 1.887-.241 3.438-.729 4.653z"/><path fill="#999" d="M32.058 3200c-17.645 0-32 14.355-32 32s14.355 32 32 32 32-14.355 32-32-14.355-32-32-32zm4 50.172h-8v-22.414h8v22.414zm0-29.172h-8v-8h8v8z"/><path fill="#fff" d="M160.058 3200c-17.645 0-32 14.355-32 32s14.355 32 32 32 32-14.355 32-32-14.355-32-32-32zm4 50.172h-8v-22.414h8v22.414zm0-29.172h-8v-8h8v8z"/><path fill="#999" d="M20.058 3506.396l-16.742 5.176c-1.793.578-3.258-.484-3.258-2.367v-38.93c0-1.883 1.465-3.898 3.258-4.477l16.742-5.172v45.77zm24-39.542l16.742-5.18c1.793-.578 3.258.488 3.258 2.371v38.926c0 1.883-1.465 3.898-3.258 4.477l-16.742 5.18v-45.774zm-20 39.542l16 6.231v-45.773l-16-6.227v45.769z"/><path fill="#fff" d="M148.058 3506.396l-16.742 5.176c-1.793.578-3.258-.484-3.258-2.367v-38.93c0-1.883 1.465-3.898 3.258-4.477l16.742-5.172v45.77zm24-39.542l16.742-5.18c1.793-.578 3.258.488 3.258 2.371v38.926c0 1.883-1.465 3.898-3.258 4.477l-16.742 5.18v-45.774zm-20 39.542l16 6.231v-45.773l-16-6.227v45.769z"/><path fill="#999" d="M63.403 3638.201l-26.747-49.311c-.922-1.703-2.684-2.766-4.598-2.766s-3.676 1.062-4.598 2.766l-26.75 49.311c-.898 1.652-.867 3.672.078 5.297.941 1.633 2.855 2.438 4.716 2.438h53.49c1.861 0 3.389-.806 4.334-2.438.947-1.625.974-3.644.075-5.297zm-27.345 1.799h-8v-8h8v8zm0-15h-8v-22h8v22z"/><path fill="#fff" d="M191.404 3638.201l-26.747-49.311c-.922-1.703-2.684-2.766-4.598-2.766s-3.676 1.062-4.598 2.766l-26.751 49.311c-.898 1.652-.867 3.672.078 5.297.941 1.633 2.855 2.438 4.716 2.438h53.49c1.861 0 3.389-.806 4.334-2.438.948-1.625.975-3.644.076-5.297zm-27.345 1.799h-8v-8h8v8zm0-15h-8v-22h8v22z"/><path fill="#999" d="M60.199 3720.461l-7.559-7.562c-1.031-1.031-2.703-1.031-3.738 0l-11.488 11.496c-.496.492-.773 1.164-.773 1.867s.277 1.375.773 1.871l7.457 7.453c-1.16 2.223-3.891 6.707-9.27 12.086-5.332 5.332-9.855 8.09-12.09 9.266l-7.453-7.453c-.492-.496-1.168-.773-1.867-.773-.703 0-1.375.277-1.871.773l-11.488 11.488c-.492.496-.773 1.172-.773 1.871s.281 1.375.773 1.871l7.559 7.559c2.559 2.555 5.809 3.852 9.66 3.852 11.555 0 24.41-11.613 29.398-16.605 6.652-6.648 11.773-13.738 14.422-19.965 4.296-10.103 1.464-15.962-1.672-19.095z"/><path fill="#fff" d="M188.199 3720.461l-7.559-7.562c-1.031-1.031-2.703-1.031-3.738 0l-11.488 11.496c-.496.492-.773 1.164-.773 1.867s.277 1.375.773 1.871l7.457 7.453c-1.16 2.223-3.891 6.707-9.27 12.086-5.332 5.332-9.855 8.09-12.09 9.266l-7.453-7.453c-.492-.496-1.168-.773-1.867-.773-.703 0-1.375.277-1.871.773l-11.488 11.488c-.492.496-.773 1.172-.773 1.871s.281 1.375.773 1.871l7.559 7.559c2.559 2.555 5.809 3.852 9.66 3.852 11.555 0 24.41-11.613 29.398-16.605 6.652-6.648 11.773-13.738 14.422-19.965 4.296-10.103 1.464-15.962-1.672-19.095z"/><path fill="#999" d="M62.71 3850.491l-7.852-8.727c-.988-1.098-2.391-1.723-3.863-1.723h-45.73c-2.875 0-5.207 2.344-5.207 5.234v53.531c0 2.891 2.125 5.192 5 5.192h53.586c2.875 0 5.414-2.302 5.414-5.192v-44.801c0-1.299-.48-2.553-1.348-3.514zm-15.652 18.509h-31v-24h31v24zm-26-18h8v13h-8v-13z"/><path fill="#fff" d="M190.71 3850.491l-7.852-8.727c-.988-1.098-2.391-1.723-3.863-1.723h-45.73c-2.875 0-5.207 2.344-5.207 5.234v53.531c0 2.891 2.125 5.192 5 5.192h53.586c2.875 0 5.414-2.302 5.414-5.192v-44.801c0-1.299-.48-2.553-1.348-3.514zm-15.652 18.509h-31v-24h31v24zm-26-18h8v13h-8v-13z"/><path fill="#999" d="M62.019 4148.094l-10.945-10.938c-1.822-1.82-4.391-2.398-6.713-1.785l-2.996-2.996c2.869-3.898 4.482-8.547 4.486-13.48 0-6.113-2.385-11.863-6.709-16.191-4.326-4.32-10.076-6.703-16.195-6.703s-11.871 2.383-16.191 6.703c-8.928 8.926-8.932 23.453 0 32.379 4.32 4.328 10.072 6.707 16.191 6.707 4.933 0 9.587-1.613 13.488-4.484l2.994 3c-.611 2.324-.039 4.895 1.779 6.711l10.945 10.941c1.363 1.363 3.148 2.043 4.93 2.043 1.785 0 3.572-.68 4.936-2.043 2.718-2.724 2.718-7.142 0-9.864zm-50.334-17.942c-6.219-6.219-6.219-16.301 0-22.52 3.111-3.109 7.186-4.66 11.262-4.66 4.074 0 8.15 1.551 11.263 4.66 6.217 6.219 6.217 16.305-.004 22.52-3.109 3.109-7.186 4.668-11.259 4.668-4.076 0-8.151-1.558-11.262-4.668z"/><path fill="#fff" d="M190.019 4148.094l-10.945-10.938c-1.822-1.82-4.391-2.398-6.713-1.785l-2.996-2.996c2.869-3.898 4.482-8.547 4.486-13.48 0-6.113-2.385-11.863-6.709-16.191-4.326-4.32-10.076-6.703-16.195-6.703s-11.871 2.383-16.191 6.703c-8.928 8.926-8.932 23.453 0 32.379 4.32 4.328 10.072 6.707 16.191 6.707 4.933 0 9.587-1.613 13.488-4.484l2.994 3c-.611 2.324-.039 4.895 1.779 6.711l10.945 10.941c1.363 1.363 3.148 2.043 4.93 2.043 1.785 0 3.572-.68 4.936-2.043 2.718-2.724 2.718-7.142 0-9.864zm-50.334-17.942c-6.219-6.219-6.219-16.301 0-22.52 3.111-3.109 7.186-4.66 11.262-4.66 4.074 0 8.15 1.551 11.263 4.66 6.217 6.219 6.217 16.305-.004 22.52-3.109 3.109-7.186 4.668-11.259 4.668-4.076 0-8.151-1.558-11.262-4.668z"/><path fill="#999" d="M20.083 4288c-.235 0-.563-.135-.729-.301l-18.992-18.871c-.167-.166-.303-.492-.303-.728v-23.951c0-.235.136-.562.302-.729l18.994-18.994c.166-.166.494-.302.729-.302h23.951c.235 0 .562.136.729.302l18.994 18.994c.166.166.302.493.302.729v23.951c0 .235-.136.562-.303.728l-18.992 18.871c-.167.166-.495.301-.729.301h-23.953z"/><path fill="#fff" d="M148.083 4288c-.235 0-.563-.135-.729-.301l-18.992-18.871c-.167-.166-.303-.492-.303-.728v-23.951c0-.235.136-.562.302-.729l18.994-18.994c.166-.166.494-.302.729-.302h23.951c.235 0 .562.136.729.302l18.994 18.994c.166.166.302.493.302.729v23.951c0 .235-.136.562-.303.728l-18.992 18.871c-.167.166-.495.301-.729.301h-23.953z"/><path fill="#999" d="M24.5 4406c-1.396 0-2.531-1.078-2.531-2.477 0-1.395 1.135-2.523 2.531-2.523h15.139c1.4 0 2.531 1.129 2.531 2.523 0 1.398-1.131 2.477-2.531 2.477h-15.139zm0 10c-1.396 0-2.531-1.133-2.531-2.527s1.135-2.473 2.531-2.473h15.139c1.4 0 2.531 1.078 2.531 2.473s-1.13 2.527-2.531 2.527h-15.139zm7.558-64c-10.476 0-19 8.512-19 18.973 0 3.328.876 6.602 2.531 9.469l.521.902c.892 1.535 1.694 2.738 2.402 3.797 1.678 2.516 2.457 3.684 2.766 6.57.188 3.207 2.864 5.289 6.122 5.289h9.318c3.258 0 5.934-2.082 6.122-5.293.305-2.883 1.087-4.051 2.762-6.562.708-1.062 1.514-2.266 2.39-3.777l.54-.938c1.654-2.859 2.527-6.133 2.527-9.457-.001-10.461-8.525-18.973-19.001-18.973zm10.859 17.309l-3.591 6.773c-.36.68-1.087 1.105-1.885 1.105s-1.526-.426-1.89-1.105l-1.698-3.211-1.702 3.211c-.36.68-1.087 1.105-1.885 1.105s-1.53-.426-1.89-1.105l-1.283-2.43-1.041.395-1.076 2.035c-.375.703-1.119 1.105-1.893 1.105-.321 0-.646-.066-.955-.215-1.041-.508-1.459-1.727-.931-2.723l3.591-6.773c.36-.68 1.087-1.109 1.885-1.109s1.526.43 1.89 1.109l1.702 3.211 1.698-3.207c.36-.684 1.087-1.113 1.885-1.113s1.53.43 1.89 1.109l1.287 2.43 1.037-.395 1.08-2.031c.524-.996 1.795-1.395 2.844-.891 1.041.505 1.456 1.723.931 2.72z"/><path fill="#fff" d="M152.5 4406c-1.396 0-2.531-1.078-2.531-2.477 0-1.395 1.135-2.523 2.531-2.523h15.139c1.4 0 2.531 1.129 2.531 2.523 0 1.398-1.131 2.477-2.531 2.477h-15.139zm0 10c-1.396 0-2.531-1.133-2.531-2.527s1.135-2.473 2.531-2.473h15.139c1.4 0 2.531 1.078 2.531 2.473s-1.131 2.527-2.531 2.527h-15.139zm7.558-64c-10.476 0-19 8.512-19 18.973 0 3.328.876 6.602 2.531 9.469l.521.902c.892 1.535 1.694 2.738 2.402 3.797 1.678 2.516 2.457 3.684 2.766 6.57.188 3.207 2.864 5.289 6.122 5.289h9.318c3.258 0 5.934-2.082 6.122-5.293.305-2.883 1.087-4.051 2.762-6.562.708-1.062 1.514-2.266 2.39-3.777l.54-.938c1.654-2.859 2.527-6.133 2.527-9.457-.001-10.461-8.525-18.973-19.001-18.973zm10.859 17.309l-3.591 6.773c-.36.68-1.087 1.105-1.885 1.105s-1.526-.426-1.89-1.105l-1.698-3.211-1.702 3.211c-.36.68-1.087 1.105-1.885 1.105s-1.53-.426-1.89-1.105l-1.283-2.43-1.041.395-1.076 2.035c-.375.703-1.119 1.105-1.893 1.105-.321 0-.646-.066-.955-.215-1.041-.508-1.459-1.727-.931-2.723l3.591-6.773c.36-.68 1.087-1.109 1.885-1.109s1.526.43 1.89 1.109l1.702 3.211 1.698-3.207c.36-.684 1.087-1.113 1.885-1.113s1.53.43 1.89 1.109l1.287 2.43 1.037-.395 1.08-2.031c.524-.996 1.795-1.395 2.844-.891 1.041.505 1.456 1.723.931 2.72z"/><path fill="#999" d="M63.472 4511.199c-7.145-8.68-17.684-13.656-28.917-13.656-15.078 0-28.621 8.973-34.496 22.867l4.711 1.992c.84-1.977 1.855-3.84 3.023-5.566 7.027 7.191 16.613 11.258 26.762 11.258 11.167 0 21.656-4.922 28.796-13.508.882-.925.957-2.378.121-3.387zm-28.918 11.75c-5.586 0-10.133-4.543-10.133-10.133 0-5.586 4.547-10.129 10.133-10.129 5.589 0 10.136 4.543 10.136 10.129 0 5.59-4.546 10.133-10.136 10.133zm0-13.543c-1.883 0-3.41 1.527-3.41 3.41 0 1.887 1.527 3.414 3.41 3.414 1.886 0 3.417-1.527 3.417-3.414.001-1.882-1.531-3.41-3.417-3.41z"/><path fill="#fff" d="M191.472 4511.199c-7.145-8.68-17.684-13.656-28.917-13.656-15.078 0-28.621 8.973-34.496 22.867l4.711 1.992c.84-1.977 1.855-3.84 3.023-5.566 7.027 7.191 16.613 11.258 26.762 11.258 11.167 0 21.656-4.922 28.796-13.508.882-.925.957-2.378.121-3.387zm-28.918 11.75c-5.586 0-10.133-4.543-10.133-10.133 0-5.586 4.547-10.129 10.133-10.129 5.589 0 10.136 4.543 10.136 10.129 0 5.59-4.546 10.133-10.136 10.133zm0-13.543c-1.883 0-3.41 1.527-3.41 3.41 0 1.887 1.527 3.414 3.41 3.414 1.886 0 3.417-1.527 3.417-3.414.001-1.882-1.531-3.41-3.417-3.41z"/><path fill="#999" d="M32.875 2560c-1.227 0-2.453.422-3.449 1.273l-22.508 19.23c-1.691 1.441-2.301 3.789-1.531 5.875.77 2.082 3.449 3.621 5.671 3.621h7v28c0 2.934 2.766 6 5.7 6h17.051c2.93 0 6.25-2.375 6.25-5.309v-28.844h7.141c2.199 0 4.168-1.352 4.957-3.402.785-2.051.23-4.375-1.402-5.844l-21.32-19.234c-1.013-.909-2.287-1.366-3.56-1.366z"/><path fill="#fff" d="M160.875 2560c-1.227 0-2.453.422-3.449 1.273l-22.508 19.23c-1.691 1.441-2.301 3.789-1.531 5.875.77 2.082 3.449 3.621 5.671 3.621h7v28c0 2.934 2.766 6 5.7 6h17.051c2.93 0 6.25-2.375 6.25-5.309v-28.844h7.141c2.199 0 4.168-1.352 4.957-3.402.785-2.051.23-4.375-1.402-5.844l-21.32-19.234c-1.013-.909-2.287-1.366-3.56-1.366z"/><path fill="#999" d="M32.24 2496c1.227 0 2.453-.422 3.449-1.273l22.508-19.23c1.691-1.441 2.301-3.785 1.535-5.871-.773-2.086-2.758-3.473-4.984-3.473h-8.689v-28.84c0-2.938-1.768-5.312-4.701-5.312h-17.052c-2.934 0-5.248 2.375-5.248 5.312v28.84h-8.143c-2.199 0-4.168 1.355-4.957 3.402-.789 2.055-.234 4.379 1.398 5.848l21.328 19.23c1.013.914 2.282 1.367 3.556 1.367z"/><path fill="#fff" d="M160.24 2496c1.227 0 2.453-.422 3.449-1.273l22.508-19.23c1.691-1.441 2.301-3.785 1.535-5.871-.773-2.086-2.758-3.473-4.984-3.473h-8.689v-28.84c0-2.938-1.768-5.312-4.701-5.312h-17.051c-2.934 0-5.248 2.375-5.248 5.312v28.84h-8.143c-2.199 0-4.168 1.355-4.957 3.402-.789 2.055-.234 4.379 1.398 5.848l21.328 19.23c1.012.914 2.281 1.367 3.555 1.367z"/><path fill="#999" d="M56.027 3096.102l-14.211-14.197c-.492-.494-.863-1.082-1.09-1.713h-17.355c-.227.588-.566 1.137-1.027 1.6l-14.148 14.264c-.473.479-.527.83-1.137 1.062v12.768c.559.231.578.572 1.023 1.015l14.215 14.201c.488.494.859 1.078 1.086 1.713h17.352c.23-.592.57-1.141 1.035-1.603l14.148-14.265c.473-.474.535-.83 1.141-1.062v-12.768c-.556-.232-.587-.568-1.032-1.015zm-38.422-22.102h-15.711c-.953 0-1.727.776-1.727 1.732v15.831c0 .698.422 1.333 1.07 1.599.211.091.438.134.656.134.453 0 .895-.177 1.227-.51l15.711-15.831c.492-.498.637-1.242.367-1.889-.265-.646-.894-1.066-1.593-1.066zm-14.602 40.171c-.328-.329-.77-.506-1.219-.506-.223 0-.445.043-.66.134-.645.266-1.066.9-1.066 1.599v15.761c0 .956.773 1.732 1.727 1.732h15.781c.699 0 1.328-.424 1.598-1.07.266-.646.117-1.395-.379-1.893l-15.782-15.757zm59.875-.333c-.211-.09-.438-.134-.656-.134-.453 0-.895.177-1.227.51l-15.711 15.831c-.492.498-.637 1.242-.367 1.89.266.646.895 1.065 1.594 1.065h15.711c.953 0 1.727-.775 1.727-1.732v-15.831c0-.698-.422-1.333-1.071-1.599zm-.546-39.729h-15.782c-.699 0-1.328.424-1.598 1.07-.266.646-.117 1.395.379 1.893l15.781 15.758c.328.328.77.505 1.219.505.223 0 .449-.043.664-.134.641-.266 1.062-.9 1.062-1.598v-15.762c.001-.955-.772-1.732-1.725-1.732z"/><path fill="#fff" d="M184.027 3096.102l-14.211-14.197c-.492-.494-.863-1.082-1.09-1.713h-17.355c-.227.588-.566 1.137-1.027 1.6l-14.148 14.264c-.473.479-.527.83-1.137 1.062v12.768c.559.231.578.572 1.023 1.015l14.215 14.201c.488.494.859 1.078 1.086 1.713h17.352c.23-.592.57-1.141 1.035-1.603l14.148-14.265c.473-.474.535-.83 1.141-1.062v-12.768c-.556-.232-.587-.568-1.032-1.015zm-38.422-22.102h-15.711c-.953 0-1.727.776-1.727 1.732v15.831c0 .698.422 1.333 1.07 1.599.211.091.438.134.656.134.453 0 .895-.177 1.227-.51l15.711-15.831c.492-.498.637-1.242.367-1.889-.265-.646-.894-1.066-1.593-1.066zm-14.602 40.171c-.328-.329-.77-.506-1.219-.506-.223 0-.445.043-.66.134-.645.266-1.066.9-1.066 1.599v15.761c0 .956.773 1.732 1.727 1.732h15.781c.699 0 1.328-.424 1.598-1.07.266-.646.117-1.395-.379-1.893l-15.782-15.757zm59.875-.333c-.211-.09-.438-.134-.656-.134-.453 0-.895.177-1.227.51l-15.711 15.831c-.492.498-.637 1.242-.367 1.89.266.646.895 1.065 1.594 1.065h15.711c.953 0 1.727-.775 1.727-1.732v-15.831c0-.698-.422-1.333-1.071-1.599zm-.546-39.729h-15.782c-.699 0-1.328.424-1.598 1.07-.266.646-.117 1.395.379 1.893l15.781 15.758c.328.328.77.505 1.219.505.223 0 .449-.043.664-.134.641-.266 1.062-.9 1.062-1.598v-15.762c.001-.955-.772-1.732-1.725-1.732z"/><path fill="#999" d="M50.058 3353.605v-7.34c0-10.07-8.289-18.266-18.121-18.266s-17.832 8.195-17.832 18.266v7.363c-3.385.402-6.047 3.34-6.047 6.906v24.477c0 3.84 3.07 6.988 6.82 6.988h34.359c3.75 0 6.82-3.148 6.82-6.988v-24.477c.001-3.655-2.499-6.639-5.999-6.929zm-15 18.567v8.828h-6v-8.828c-1.871-.938-2.75-2.887-2.75-5.168 0-3.184 2.521-5.77 5.629-5.77 3.113 0 5.633 2.586 5.633 5.77 0 2.281-.641 4.234-2.512 5.168zm6.188-19.172h-18.188v-6.734c0-5.258 3.75-9.535 8.879-9.535 5.133 0 9.309 4.277 9.309 9.535v6.734z"/><path fill="#fff" d="M178.058 3353.605v-7.34c0-10.07-8.289-18.266-18.121-18.266s-17.832 8.195-17.832 18.266v7.363c-3.385.402-6.047 3.34-6.047 6.906v24.477c0 3.84 3.07 6.988 6.82 6.988h34.359c3.75 0 6.82-3.148 6.82-6.988v-24.477c.001-3.655-2.499-6.639-5.999-6.929zm-15 18.567v8.828h-6v-8.828c-1.871-.938-2.75-2.887-2.75-5.168 0-3.184 2.521-5.77 5.629-5.77 3.113 0 5.633 2.586 5.633 5.77 0 2.281-.641 4.234-2.512 5.168zm6.188-19.172h-18.188v-6.734c0-5.258 3.75-9.535 8.879-9.535 5.133 0 9.309 4.277 9.309 9.535v6.734z"/><path fill="#999" d="M18.058 128v8.864h30.395l-48.395 48.612 6.47 6.47 48.764-48.394v30.448h8.766v-46h-46z"/><path fill="#fff" d="M146.058 128v8.864h30.395l-48.395 48.612 6.47 6.47 48.764-48.394v30.448h8.766v-46h-46z"/><path fill="#999" d="M50.741 40.06l-4.738-6.573-14.945 15.297v-48.784h-11v48.862l-15.116-15.497-4.884 6.729 25.684 23.802 24.999-23.836zm-28.683-30.06h32v-10h-32v10z"/><path fill="#fff" d="M178.741 40.06l-4.738-6.573-14.945 15.297v-48.784h-11v48.862l-15.116-15.497-4.884 6.729 25.684 23.802 24.999-23.836zm-28.683-30.06h32v-10h-32v10zm-22 4650h64v12h-64v-12zm48 109.883v22.117h-40v-37h22.118v-8h-30.118v53h57v-30.117h-9zm-18-33.883v34h34v-34h-34zm26 27h-18v-19h18v19z"/><path fill="#999" d="M62.208 4902.092l-6.341-2.625c.341-2.328.328-4.662-.002-6.933l6.344-2.626c1.523-.632 2.255-2.395 1.622-3.922l-2.227-5.375c-.632-1.525-2.396-2.255-3.919-1.625l-6.346 2.63c-1.367-1.84-3.01-3.497-4.896-4.899l2.625-6.344c.633-1.524-.099-3.287-1.623-3.916l-5.377-2.23c-1.523-.63-3.287.098-3.919 1.625l-2.625 6.338c-2.328-.338-4.662-.328-6.93.006l-2.628-6.344c-.63-1.523-2.396-2.255-3.918-1.622l-5.378 2.228c-1.523.629-2.255 2.395-1.622 3.916l2.627 6.344c-1.841 1.369-3.497 3.01-4.903 4.897l-6.338-2.625c-1.523-.633-3.287.099-3.919 1.622l-2.227 5.38c-.633 1.522.099 3.288 1.623 3.917l6.338 2.626c-.341 2.327-.328 4.661.003 6.933l-6.341 2.625c-1.524.632-2.255 2.395-1.623 3.922l2.227 5.375c.633 1.525 2.396 2.254 3.919 1.625l6.341-2.627c1.37 1.84 3.013 3.496 4.901 4.902l-2.627 6.338c-.631 1.524.099 3.287 1.625 3.919l5.375 2.229c1.525.63 3.289-.101 3.918-1.625l2.625-6.341c2.332.346 4.662.332 6.933-.002l2.628 6.343c.633 1.524 2.396 2.255 3.919 1.625l5.377-2.23c1.524-.63 2.255-2.393 1.623-3.917l-2.627-6.343c1.841-1.37 3.498-3.01 4.904-4.897l6.338 2.625c1.524.631 3.287-.101 3.919-1.623l2.227-5.377c.63-1.529-.102-3.293-1.625-3.922zm-19.544-1.699c-2.427 5.859-9.143 8.642-15 6.215-5.856-2.428-8.641-9.141-6.213-15s9.14-8.639 15-6.215c5.856 2.426 8.637 9.141 6.213 15z"/><path fill="#fff" d="M190.208 4902.092l-6.341-2.625c.341-2.328.328-4.662-.002-6.933l6.344-2.626c1.523-.632 2.255-2.395 1.622-3.922l-2.227-5.375c-.632-1.525-2.396-2.255-3.919-1.625l-6.346 2.63c-1.367-1.84-3.01-3.497-4.896-4.899l2.625-6.344c.633-1.524-.099-3.287-1.623-3.916l-5.377-2.23c-1.523-.63-3.287.098-3.919 1.625l-2.625 6.338c-2.328-.338-4.662-.328-6.93.006l-2.628-6.344c-.63-1.523-2.396-2.255-3.918-1.622l-5.378 2.228c-1.523.629-2.255 2.395-1.622 3.916l2.627 6.344c-1.841 1.369-3.497 3.01-4.903 4.897l-6.338-2.625c-1.523-.633-3.287.099-3.919 1.622l-2.227 5.38c-.633 1.522.099 3.288 1.623 3.917l6.338 2.626c-.341 2.327-.328 4.661.003 6.933l-6.341 2.625c-1.524.632-2.255 2.395-1.623 3.922l2.227 5.375c.633 1.525 2.396 2.254 3.919 1.625l6.341-2.627c1.37 1.84 3.013 3.496 4.901 4.902l-2.627 6.338c-.631 1.524.099 3.287 1.625 3.919l5.375 2.229c1.525.63 3.289-.101 3.918-1.625l2.625-6.341c2.332.346 4.662.332 6.933-.002l2.628 6.343c.633 1.524 2.396 2.255 3.919 1.625l5.377-2.23c1.524-.63 2.255-2.393 1.623-3.917l-2.627-6.343c1.841-1.37 3.498-3.01 4.904-4.897l6.338 2.625c1.524.631 3.287-.101 3.919-1.623l2.227-5.377c.63-1.529-.102-3.293-1.625-3.922zm-19.544-1.699c-2.427 5.859-9.143 8.642-15 6.215-5.856-2.428-8.641-9.141-6.213-15s9.14-8.639 15-6.215c5.856 2.426 8.637 9.141 6.213 15z"/><path fill="#999" d="M14.058 5038.072h4v3.854h-4v-3.854zm8 0h4v3.854h-4v-3.854zm8 0h4v3.854h-4v-3.854zm8 0h4v3.854h-4v-3.854zm8 0h4v3.854h-4v-3.854zm-24-8h4v3.854h-4v-3.854zm8 0h4v3.854h-4v-3.854zm8 0h4v3.854h-4v-3.854zm8 0h4v3.854h-4v-3.854zm-16-8h4v3.854h-4v-3.854zm8 0h4v3.854h-4v-3.854zm8 0h4v3.854h-4v-3.854zm-8-8h4v3.854h-4v-3.854zm8 0h4v3.854h-4v-3.854zm0-8h4v3.854h-4v-3.854zm-24 152h4v3.854h-4v-3.854zm8 0h4v3.854h-4v-3.854zm8 0h4v3.854h-4v-3.854zm-16-8h4v3.854h-4v-3.854zm8 0h4v3.854h-4v-3.854zm8 0h4v3.854h-4v-3.854zm-16-8h4v3.854h-4v-3.854zm8 0h4v3.854h-4v-3.854zm8 0h4v3.854h-4v-3.854z"/><linearGradient id="a" gradientUnits="userSpaceOnUse" x1="32.037" y1="5681.883" x2="32.037" y2="5738.027" gradientTransform="matrix(1 0 0 -1 0 10991)"><stop offset="0" stop-color="#7D93D7"/><stop offset="1" stop-color="#506FC9"/></linearGradient><path fill="url(#a)" d="M61.174 5279.98c0 16.089-13.048 29.137-29.138 29.137-16.089 0-29.136-13.048-29.136-29.137 0-16.094 13.046-29.137 29.136-29.137 16.09.001 29.138 13.044 29.138 29.137z"/><path fill="#506FC9" d="M32.037 5311.959c-17.632 0-31.979-14.346-31.979-31.979 0-17.634 14.346-31.98 31.979-31.98 17.634 0 31.979 14.347 31.979 31.98s-14.346 31.979-31.979 31.979zm0-58.273c-14.499 0-26.293 11.795-26.293 26.295 0 14.496 11.795 26.293 26.293 26.293 14.496 0 26.294-11.797 26.294-26.293 0-14.501-11.798-26.295-26.294-26.295z"/><path fill="#99B9E4" d="M18.058 5430.621c0 2.482-2.605 5.379-5.086 5.379h-8.422c-2.479 0-4.492-2.896-4.492-5.379v-20.771c0-2.482 2.014-4.85 4.492-4.85h8.422c2.48 0 5.086 2.367 5.086 4.85v20.771zm-.596-38.783c0 4.807-3.898 8.701-8.701 8.701-4.805 0-8.701-3.895-8.701-8.701 0-4.805 3.896-8.699 8.701-8.699 4.803 0 8.701 3.894 8.701 8.699z"/><path fill="#C7C6B9" d="M41.058 5424.068c0 2.482-2.312 4.932-4.791 4.932h-8.422c-2.48 0-4.787-2.449-4.787-4.932v-20.77c0-2.479 2.307-5.299 4.787-5.299h8.422c2.479 0 4.791 2.82 4.791 5.299v20.77z"/><circle fill="#C7C6B9" cx="32.057" cy="5385.291" r="8.702"/><path fill="#D5D354" d="M64.058 5434.918c0 2.482-2.02 5.082-4.492 5.082h-8.426c-2.479 0-5.082-2.6-5.082-5.082v-20.77c0-2.477 2.604-5.148 5.082-5.148h8.426c2.473 0 4.492 2.672 4.492 5.148v20.77zm-.002-38.777c0 4.807-3.902 8.701-8.707 8.701-4.803 0-8.701-3.895-8.701-8.701s3.898-8.701 8.701-8.701c4.805-.001 8.707 3.894 8.707 8.701z"/><path fill="#999" d="M62.56 5521.484c-.919-.473-2.026-.389-2.864.214l-10.876 8.524v-8.111c0-3.685-3.979-7.111-7.663-7.111h-34.419c-3.683 0-6.68 3.427-6.68 7.111v27.209c0 3.684 2.997 6.68 6.68 6.68h34.419c3.684 0 7.663-2.996 7.663-6.68v-6.878l10.795 8.466c.466.363 1.052.578 1.688.578 1.521 0 2.755-1.23 2.755-2.75v-24.8c0-1.034-.577-1.982-1.498-2.452z"/><path fill="#fff" d="M190.56 5521.484c-.919-.473-2.026-.389-2.864.214l-10.876 8.524v-8.111c0-3.685-3.979-7.111-7.663-7.111h-34.419c-3.683 0-6.68 3.427-6.68 7.111v27.209c0 3.684 2.997 6.68 6.68 6.68h34.419c3.684 0 7.663-2.996 7.663-6.68v-6.878l10.795 8.466c.466.363 1.052.578 1.688.578 1.521 0 2.755-1.23 2.755-2.75v-24.8c0-1.034-.577-1.982-1.498-2.452z"/><path fill="#999" d="M7.05 5631.979l56.064 56.064-4.998 4.998-56.064-56.064 4.998-4.998zm43.28 34.447l-4.999-5 9.011-9.01c2.568-2.57 2.064-7.256-1.125-10.447-3.19-3.188-7.876-3.693-10.445-1.121l-7.976 7.975-4.999-4.999 7.976-7.974c5.328-5.328 14.498-4.822 20.443 1.121 5.946 5.946 6.449 15.117 1.125 20.443l-9.011 9.012zm-33.251 27.747c-3.952 0-8.065-1.623-11.253-4.812-5.945-5.943-6.449-15.116-1.124-20.443l9.605-9.602 4.998 4.998-9.603 9.602c-2.57 2.572-2.066 7.258 1.122 10.447 3.191 3.188 7.875 3.692 10.446 1.121l8.251-8.25 4.999 5-8.251 8.251c-2.47 2.47-5.769 3.688-9.19 3.688"/><path fill="#fff" d="M135.049 5631.978l56.064 56.064-4.998 4.998-56.064-56.064 4.998-4.998zm43.281 34.448l-4.999-5 9.011-9.01c2.568-2.57 2.064-7.256-1.125-10.447-3.19-3.188-7.876-3.693-10.445-1.121l-7.976 7.975-4.999-4.999 7.976-7.974c5.328-5.328 14.498-4.822 20.443 1.121 5.946 5.946 6.449 15.117 1.125 20.443l-9.011 9.012zm-33.251 27.747c-3.952 0-8.065-1.623-11.253-4.812-5.945-5.943-6.449-15.116-1.124-20.443l9.605-9.602 4.998 4.998-9.603 9.602c-2.57 2.572-2.066 7.258 1.122 10.447 3.191 3.188 7.875 3.692 10.446 1.121l8.251-8.25 4.999 5-8.251 8.251c-2.47 2.47-5.769 3.688-9.19 3.688"/><path fill="#999" d="M62.413 5788.893c-.214-.581-.406-1.173-.651-1.745-.402-.79-.755-1.607-1.19-2.382-1.053-1.788-2.334-3.436-3.721-4.978-1.695-1.627-3.607-3.022-5.603-4.254-1.642-.738-3.269-1.524-5.022-1.976-.727-.068-1.417-.334-2.14-.426-2.908-.358-5.95-.015-8.581 1.33-1.037.531-2.037 1.158-2.907 1.935-1.746 1.746-3.491 3.495-5.24 5.24-.753.695-.917 1.806-.895 2.78.146 2.282 1.946 4.234 4.116 4.819 1.181.314 2.504.118 3.439-.712 2.087-2.002 4.064-4.126 6.175-6.105.591-.216 1.105-.622 1.74-.727 3.022-.842 6.203.376 8.579 2.247.984.985 2.085 1.897 2.742 3.153 1.535 2.417 2.231 5.613.989 8.299-.518 1.29-1.694 2.098-2.605 3.087-3.203 3.206-6.399 6.422-9.62 9.612-1.254.955-2.874 1.45-4.448 1.291-1.831-.028-3.607-.672-5.122-1.681-1.055-.494-1.728-1.492-2.673-2.142-1.212-.966-2.895-1.524-4.402-.95-.998.45-1.839 1.419-1.865 2.555-.273 1.884.989 3.559 2.33 4.736 1.354 1.234 2.847 2.301 4.404 3.264.712.398 1.494.66 2.188 1.092 1.413.544 2.858 1.024 4.345 1.31 3.424.679 7.118.264 10.151-1.52 1.633-.917 2.84-2.371 4.168-3.655 2.887-2.879 5.763-5.768 8.647-8.646 1.947-1.963 3.116-4.618 3.465-7.345.329-2.526-.068-5.083-.793-7.506zM30.908 5819.881c-.359.171-.721.335-1.09.483-2.156 1.903-4.053 4.085-6.171 6.028-1.882 1.561-4.542 1.762-6.815 1.059-2.985-.914-5.598-3.035-7.048-5.812-.802-1.421-1.321-3.033-1.28-4.679-.048-1.583.417-3.212 1.513-4.387 3.723-3.714 7.431-7.443 11.158-11.151 1.581-1.485 3.933-1.71 5.983-1.36 1.821.31 3.419 1.292 4.906 2.332.666.585 1.221 1.316 2.022 1.731 1.175.768 2.736 1.091 4.044.458 1.066-.529 1.769-1.71 1.662-2.909-.007-1.749-1.118-3.269-2.426-4.332-1.231-1.151-2.607-2.122-4.022-3.033-1.289-.57-2.501-1.321-3.85-1.745-1.489-.463-3-.908-4.561-1.022-4.191-.423-8.651.937-11.549 4.068-3.092 3.088-6.179 6.182-9.268 9.276-1.517 1.362-2.508 3.198-3.301 5.052-1.303 3.649-.934 7.68.356 11.278.413 1.04.908 2.044 1.406 3.046 2.024 3.566 4.946 6.599 8.389 8.813.478.275.978.524 1.384.904l.417.048c2.607 1.465 5.618 2.203 8.601 2.277 2.529.04 5.022-.622 7.232-1.84.764-.564 1.537-1.125 2.216-1.791 1.773-1.791 3.585-3.546 5.33-5.363 1.02-1.144.908-2.843.31-4.16-1.028-2.029-3.225-3.511-5.548-3.269z"/><path fill="#fff" d="M164.505 5774.462c2.631-1.345 5.673-1.688 8.581-1.33.723.092 1.413.358 2.14.426 1.753.452 3.38 1.238 5.022 1.976 1.996 1.232 3.908 2.627 5.603 4.254 1.387 1.542 2.668 3.19 3.721 4.978.435.775.788 1.592 1.19 2.382.245.572.437 1.164.651 1.745.725 2.424 1.122 4.98.793 7.505-.349 2.727-1.518 5.382-3.465 7.345-2.884 2.878-5.76 5.767-8.647 8.646-1.328 1.284-2.535 2.738-4.168 3.655-3.033 1.784-6.727 2.199-10.151 1.52-1.487-.286-2.932-.766-4.345-1.31-.694-.432-1.476-.694-2.188-1.092-1.557-.963-3.05-2.03-4.404-3.264-1.341-1.177-2.603-2.852-2.33-4.736.026-1.136.867-2.105 1.865-2.555 1.507-.574 3.19-.016 4.402.95.945.65 1.618 1.648 2.673 2.142 1.515 1.009 3.291 1.653 5.122 1.681 1.574.159 3.194-.336 4.448-1.291 3.221-3.19 6.417-6.406 9.62-9.612.911-.989 2.087-1.797 2.605-3.087 1.242-2.686.546-5.882-.989-8.299-.657-1.256-1.758-2.168-2.742-3.153-2.376-1.871-5.557-3.089-8.579-2.247-.635.105-1.149.511-1.74.727-2.111 1.979-4.088 4.103-6.175 6.105-.935.83-2.258 1.026-3.439.712-2.17-.585-3.97-2.537-4.116-4.819-.022-.974.142-2.085.895-2.78 1.749-1.745 3.494-3.494 5.24-5.24.87-.776 1.87-1.403 2.907-1.934zM142.384 5795.609c2.898-3.131 7.358-4.491 11.549-4.068 1.561.114 3.072.559 4.561 1.022 1.349.424 2.561 1.175 3.85 1.745 1.415.911 2.791 1.882 4.022 3.033 1.308 1.063 2.419 2.583 2.426 4.332.107 1.199-.596 2.38-1.662 2.909-1.308.633-2.869.31-4.044-.458-.801-.415-1.356-1.146-2.022-1.731-1.487-1.04-3.085-2.022-4.906-2.332-2.05-.35-4.402-.125-5.983 1.36-3.727 3.708-7.435 7.437-11.158 11.151-1.096 1.175-1.561 2.804-1.513 4.387-.041 1.646.478 3.258 1.28 4.679 1.45 2.777 4.063 4.898 7.048 5.812 2.273.703 4.933.502 6.815-1.059 2.118-1.943 4.015-4.125 6.171-6.028.369-.148.731-.312 1.09-.483 2.323-.242 4.52 1.24 5.548 3.267.598 1.317.71 3.016-.31 4.16-1.745 1.817-3.557 3.572-5.33 5.363-.679.666-1.452 1.227-2.216 1.791-2.21 1.218-4.703 1.88-7.232 1.84-2.983-.074-5.994-.812-8.601-2.277l-.417-.048c-.406-.38-.906-.629-1.384-.904-3.443-2.214-6.365-5.247-8.389-8.813-.498-1.002-.993-2.006-1.406-3.046-1.29-3.598-1.659-7.629-.356-11.278.793-1.854 1.784-3.69 3.301-5.052 3.089-3.092 6.176-6.186 9.268-9.274z"/></svg>